Coordinates
version=1
nRows=26
nColumns=24
inDegrees=yes

Units are S.I. units (second, meters, Newtons, ...)
Angles are in degrees.

endheader
time	pelvis_tilt	pelvis_list	pelvis_rotation	pelvis_tx	pelvis_ty	pelvis_tz	hip_flexion_r	hip_adduction_r	hip_rotation_r	knee_angle_r	ankle_angle_r	subtalar_angle_r	mtp_angle_r	hip_flexion_l	hip_adduction_l	hip_rotation_l	knee_angle_l	ankle_angle_l	subtalar_angle_l	mtp_angle_l	lumbar_extension	lumbar_bending	lumbar_rotation
      3.80000000	    -14.98430285	    -10.09033248	      5.89153093	     -0.74302796	     -0.01220488	     -0.00687961	     21.36803369	     10.93200060	     -7.08376604	     -3.06041515	    -10.62246892	     -2.08275921	      3.89877810	     22.00332439	    -17.11502314	     -9.07543810	    -60.15811198	    -26.15710324	      9.22254587	     26.70602365	     14.89324096	     10.56722895	     -4.93223189
      3.80500000	    -14.88901600	     -9.87559713	      5.74972929	     -0.73784601	     -0.01152885	     -0.00620818	     20.85147005	     10.87636738	     -6.84167922	     -2.96568548	    -10.38827855	     -2.02341292	      4.11492019	     22.55370783	    -16.91644710	     -9.05617173	    -60.65922040	    -25.49718249	      9.03964939	     26.84643406	     14.74384785	     10.36659972	     -4.59111887
      3.81000000	    -14.74535466	     -9.64984970	      5.57170884	     -0.73254331	     -0.01077893	     -0.00555612	     20.24781168	     10.82298664	     -6.52493883	     -2.81600522	    -10.22483638	     -1.98154792	      4.45386844	     23.00038123	    -16.72355215	     -9.09934220	    -61.07853822	    -24.81642803	      9.04139807	     26.88182605	     14.56340270	     10.18651220	     -4.15510809
      3.81500000	    -14.65342749	     -9.41513624	      5.47111932	     -0.72741973	     -0.01012063	     -0.00494286	     19.75466776	     10.72184750	     -6.29635547	     -2.75350849	     -9.95674925	     -1.94915864	      4.57165406	     23.54710398	    -16.46237834	     -9.03348717	    -61.43829037	    -24.21711562	      9.05989164	     27.13040412	     14.43121917	      9.94870685	     -3.87563648
      3.82000000	    -14.54879379	     -9.14694703	      5.30051609	     -0.72219709	     -0.00942923	     -0.00426149	     19.22880748	     10.60812446	     -5.98955060	     -2.68183264	     -9.68927327	     -1.88245025	      4.70574172	     24.00870304	    -16.19675030	     -9.06153936	    -61.70124156	    -23.60871996	      9.27157021	     27.39660491	     14.29387277	      9.70562224	     -3.47100597
      3.82500000	    -14.40996083	     -8.88495166	      5.10083174	     -0.71709595	     -0.00871420	     -0.00353392	     18.68844918	     10.51170587	     -5.67298829	     -2.63403638	     -9.46603257	     -1.83588578	      4.83641084	     24.41915785	    -15.95046622	     -9.12431488	    -61.90784322	    -22.96457816	      9.55077367	     27.66223238	     14.09640194	      9.47852509	     -3.06063969
      3.83000000	    -14.32931309	     -8.59405857	      4.97315137	     -0.71208023	     -0.00807125	     -0.00291057	     18.23043300	     10.34394077	     -5.41237626	     -2.61417911	     -9.18578760	     -1.79478471	      4.92705810	     24.91812759	    -15.61110955	     -9.10825959	    -62.05664293	    -22.38139102	      9.78584088	     27.94156046	     13.96949229	      9.18533307	     -2.76766368
      3.83500000	    -14.20424177	     -8.31101169	      4.74005556	     -0.70695387	     -0.00739052	     -0.00213926	     17.70207388	     10.22554636	     -5.08639092	     -2.56870101	     -8.94012939	     -1.70993621	      5.02998383	     25.29379350	    -15.35030340	     -9.21748688	    -62.12225363	    -21.73934533	     10.23862723	     28.23155073	     13.80124257	      8.94109674	     -2.30323754
      3.84000000	    -14.12793542	     -8.00725525	      4.59816224	     -0.70201319	     -0.00678729	     -0.00150318	     17.26050999	     10.03909217	     -4.81966009	     -2.56179936	     -8.65678790	     -1.66473944	      5.11364784	     25.76812723	    -14.99364699	     -9.23120320	    -62.14951362	    -21.14581451	     10.54380915	     28.48052473	     13.67710865	      8.63473983	     -2.02185161
      3.84500000	    -13.99330461	     -7.71753208	      4.33993940	     -0.69694384	     -0.00613756	     -0.00069006	     16.73018279	      9.91424639	     -4.49598928	     -2.52315594	     -8.41298947	     -1.57764093	      5.20509321	     26.09978823	    -14.73761598	     -9.38692383	    -62.10135399	    -20.46928429	     11.05965654	     28.67547318	     13.49853463	      8.38528762	     -1.53921242
      3.85000000	    -13.88012976	     -7.41559290	      4.13211763	     -0.69198404	     -0.00553385	      0.00002794	     16.23710154	      9.74793484	     -4.18987409	     -2.49460700	     -8.15612404	     -1.52236694	      5.28814890	     26.47342273	    -14.42489489	     -9.49319530	    -62.01006518	    -19.81103823	     11.47470558	     28.78305321	     13.33838042	      8.10354685	     -1.16383717
      3.85500000	    -13.77526639	     -7.11987135	      3.91731601	     -0.68703952	     -0.00496498	      0.00075490	     15.75459305	      9.58444705	     -3.88906384	     -2.46287961	     -7.90174506	     -1.46189386	      5.36797733	     26.84483908	    -14.12171308	     -9.61670363	    -61.86845310	    -19.15179255	     11.85153482	     28.83084047	     13.19100374	      7.82428265	     -0.79119513
      3.86000000	    -13.67432096	     -6.82456940	      3.69801651	     -0.68211968	     -0.00442341	      0.00146844	     15.27844811	      9.41591632	     -3.59187930	     -2.42889600	     -7.65488920	     -1.40031010	      5.44495188	     27.20848456	    -13.81781619	     -9.75429601	    -61.67674827	    -18.49237790	     12.17266825	     28.81820479	     13.04979775	      7.54883100	     -0.42175876
      3.86500000	    -13.57706536	     -6.53373641	      3.47809390	     -0.67721764	     -0.00391046	      0.00218366	     14.80868751	      9.24768533	     -3.30604416	     -2.39182873	     -7.41401873	     -1.34318597	      5.51943930	     27.56657183	    -13.51814574	     -9.90266482	    -61.43522484	    -17.84217775	     12.41500991	     28.75072155	     12.91680326	      7.27201672	     -0.05933632
      3.87000000	    -13.46676496	     -6.25258686	      3.25040285	     -0.67231275	     -0.00341794	      0.00287980	     14.31869830	      9.08387443	     -2.98703624	     -2.34146674	     -7.17144793	     -1.28112068	      5.59848298	     27.89765163	    -13.23303776	    -10.06987605	    -61.15159982	    -17.18880406	     12.58125205	     28.58407822	     12.77380312	      7.01168532	      0.29385035
      3.87500000	    -13.36842960	     -5.97284424	      3.03194460	     -0.66743206	     -0.00295834	      0.00356619	     13.84720773	      8.91471047	     -2.69744849	     -2.29158788	     -6.94118589	     -1.23299206	      5.66817730	     28.23423740	    -12.94148023	    -10.23599169	    -60.81677761	    -16.55255854	     12.64837516	     28.38174009	     12.64578602	      6.74550776	      0.63182797
      3.88000000	    -13.28745546	     -5.69532349	      2.81704769	     -0.66260610	     -0.00254007	      0.00426352	     13.40951315	      8.74387895	     -2.44126670	     -2.25777262	     -6.71925394	     -1.19232608	      5.72640710	     28.58196547	    -12.64743812	    -10.40374427	    -60.42800579	    -15.94627290	     12.60666974	     28.18258040	     12.53158859	      6.47334863	      0.96253172
      3.88500000	    -13.18301399	     -5.43627597	      2.59712744	     -0.65773785	     -0.00214380	      0.00491836	     12.92940506	      8.58452760	     -2.13585652	     -2.19491998	     -6.48834294	     -1.14077232	      5.78057060	     28.89269041	    -12.37725418	    -10.58698143	    -60.00700568	    -15.34860937	     12.47914035	     27.86371640	     12.40597634	      6.22845928	      1.29111274
      3.89000000	    -13.14549033	     -5.17320515	      2.42767513	     -0.65287826	     -0.00185532	      0.00556845	     12.53453100	      8.40683490	     -1.91047849	     -2.14680261	     -6.24064875	     -1.11693284	      5.82505803	     29.27947407	    -12.07062727	    -10.71162295	    -59.52303039	    -14.82362696	     12.28568860	     27.66710622	     12.36264202	      5.94718472	      1.53988032
      3.89500000	    -13.01398918	     -4.93457153	      2.16982106	     -0.64814106	     -0.00149156	      0.00623028	     12.04779847	      8.26943151	     -1.59562563	     -2.10484086	     -6.03286550	     -1.05481171	      5.84721190	     29.53523105	    -11.83989678	    -10.94932893	    -59.02511892	    -14.23868825	     11.95066018	     27.17080121	     12.18479485	      5.74034573	      1.91775923
      3.90000000	    -12.92949121	     -4.68788091	      1.96400115	     -0.64333402	     -0.00120847	      0.00686902	     11.60366266	      8.10809670	     -1.32645433	     -2.04916449	     -5.80988612	     -1.02096684	      5.84047423	     29.83405511	    -11.57154259	    -11.13506377	    -58.46969831	    -13.67838757	     11.63810681	     26.68037664	     12.08296733	      5.49362299	      2.18634860
      3.90500000	    -12.88866131	     -4.45050834	      1.76499970	     -0.63867158	     -0.00102042	      0.00747395	     11.24276380	      7.94768195	     -1.08949467	     -2.04122732	     -5.56638973	     -0.98386442	      5.85287185	     30.18929287	    -11.29595949	    -11.29580143	    -57.87346819	    -13.20714630	     11.18530036	     26.28956107	     12.00785647	      5.25533940	      2.47182085
      3.91000000	    -12.80422169	     -4.23599237	      1.54855903	     -0.63395260	     -0.00083358	      0.00808054	     10.81355992	      7.81147674	     -0.82093787	     -1.99862290	     -5.31580425	     -0.92064473	      5.83864287	     30.47783897	    -11.06495593	    -11.49648438	    -57.25537745	    -12.71823047	     10.70701814	     25.72787333	     11.89846418	      5.05098769	      2.78395756
      3.91500000	    -12.74605250	     -4.01806345	      1.35460773	     -0.62926626	     -0.00069726	      0.00865305	     10.42515739	      7.66267582	     -0.58463228	     -1.97158939	     -5.06078481	     -0.87394733	      5.81646515	     30.78565500	    -10.81190020	    -11.67388851	    -56.58738434	    -12.25470177	     10.20358994	     25.16965226	     11.81464115	      4.83150151	      3.04987958
      3.92000000	    -12.72454928	     -3.78971059	      1.19068861	     -0.62457372	     -0.00061587	      0.00921095	     10.07956053	      7.49413340	     -0.38419641	     -1.94494131	     -4.81149960	     -0.84370939	      5.80555674	     31.12058345	    -10.52980830	    -11.82499614	    -55.86069950	    -11.83659385	      9.69637508	     24.68538283	     11.77719713	      4.58283164	      3.26087375
      3.92500000	    -12.66541632	     -3.59070294	      1.00300540	     -0.61990902	     -0.00053206	      0.00973092	      9.69343722	      7.35489368	     -0.16503001	     -1.91445123	     -4.56120041	     -0.78513093	      5.78112150	     31.40282824	    -10.29141464	    -12.01248443	    -55.11556097	    -11.41921117	      9.10752003	     24.07294980	     11.69348484	      4.38520275	      3.51694085
